<?xml version="1.0" standalone="no"?>
<!DOCTYPE svg PUBLIC "-//W3C//DTD SVG 20010904//EN"
 "http://www.w3.org/TR/2001/REC-SVG-20010904/DTD/svg10.dtd">
<svg version="1.0" xmlns="http://www.w3.org/2000/svg"
 width="1000.000000pt" height="1000.000000pt" viewBox="0 0 1000.000000 1000.000000"
 preserveAspectRatio="xMidYMid meet">

<g transform="translate(0.000000,1000.000000) scale(0.100000,-0.100000)"
fill="#000000" stroke="none">
<path d="M850 9689 c-86 -9 -156 -30 -220 -66 -148 -84 -258 -221 -299 -373
l-21 -75 0 -4168 c0 -3764 2 -4175 16 -4231 54 -212 219 -378 439 -443 57 -17
265 -18 4160 -21 2705 -2 4132 1 4195 7 52 6 121 19 153 30 177 61 322 209
385 395 l27 81 0 4180 0 4180 -27 81 c-49 144 -144 264 -268 339 -82 50 -152
73 -257 85 -106 12 -8168 12 -8283 -1z m1626 -653 c18 -13 19 -31 24 -236 l5
-222 110 86 c105 82 132 94 170 80 21 -8 35 -45 28 -72 -3 -11 -74 -75 -159
-142 l-154 -121 0 -412 0 -412 284 285 283 285 -13 150 c-21 246 -21 265 6
287 30 24 56 23 84 -5 20 -20 24 -37 30 -133 4 -60 10 -124 13 -143 l6 -33
157 157 c167 167 187 179 230 140 42 -38 29 -60 -136 -225 l-155 -157 143 -17
c162 -19 181 -28 176 -85 -5 -61 -24 -64 -243 -36 l-190 24 -290 -290 -290
-289 400 0 401 0 132 155 c112 132 136 155 160 155 36 0 59 -18 67 -51 6 -23
-7 -43 -89 -140 l-95 -114 223 -5 c245 -5 256 -8 256 -65 0 -61 -12 -64 -253
-67 l-217 -3 85 -109 c47 -60 87 -118 91 -128 13 -42 -52 -93 -91 -70 -9 5
-70 76 -134 158 l-117 149 -407 3 c-224 1 -407 -1 -407 -5 0 -5 125 -133 278
-286 l278 -278 202 16 c187 16 204 16 227 1 34 -22 35 -79 3 -100 -19 -11
-219 -36 -296 -36 -10 0 48 -65 146 -163 102 -102 162 -170 162 -182 0 -36
-28 -65 -63 -65 -28 0 -52 20 -184 152 -138 138 -152 149 -157 127 -3 -13 -12
-78 -20 -144 -12 -102 -18 -122 -37 -138 -16 -12 -31 -16 -48 -12 -60 15 -61
26 -31 273 l21 166 -291 291 -290 290 0 -401 0 -400 151 -128 c83 -71 155
-139 161 -152 10 -20 8 -29 -9 -52 -37 -50 -60 -42 -185 62 l-113 95 -3 -222
c-2 -188 -5 -224 -19 -239 -20 -23 -71 -23 -95 -1 -16 15 -18 35 -18 230 0
117 -3 213 -6 213 -3 0 -51 -36 -107 -80 -131 -103 -157 -110 -193 -55 -13 20
-15 31 -6 49 6 13 78 77 161 142 l151 118 0 410 0 411 -284 -285 -283 -285 13
-140 c24 -267 18 -308 -45 -308 -55 0 -63 17 -77 173 -7 78 -14 143 -16 145
-2 3 -73 -65 -158 -150 -129 -130 -160 -155 -184 -155 -37 0 -66 26 -66 59 0
20 35 61 156 182 l156 156 -43 6 c-24 4 -88 11 -142 18 -110 13 -139 29 -139
74 0 43 36 68 87 62 22 -3 111 -14 198 -24 l158 -17 287 287 287 287 -402 0
-401 0 -127 -150 c-148 -174 -178 -191 -221 -125 -23 35 -16 48 90 172 47 56
86 104 86 107 0 3 -101 6 -223 6 -208 0 -225 1 -241 19 -11 12 -16 31 -14 52
5 54 26 59 260 59 l208 0 -91 117 c-76 98 -89 120 -84 142 8 33 31 51 66 51
31 0 41 -10 179 -188 l95 -122 410 0 410 0 -281 281 -282 282 -196 -16 c-236
-20 -256 -15 -256 57 0 43 27 54 155 65 66 6 133 11 150 11 27 0 17 12 -133
163 -99 100 -162 171 -162 183 0 35 28 64 63 64 28 0 51 -19 182 -150 96 -96
152 -145 156 -137 4 6 12 68 20 137 11 106 16 128 35 147 27 27 51 29 82 7 28
-19 28 -48 1 -262 l-21 -165 291 -291 291 -291 0 402 0 402 -155 132 c-93 79
-158 142 -161 156 -10 37 20 73 59 73 28 0 53 -17 145 -95 l112 -95 0 225 c0
212 1 226 20 245 23 23 58 26 86 6z m5882 2 c8 -8 12 -57 12 -156 l0 -144 63
50 c94 73 105 78 129 54 13 -13 18 -26 14 -38 -4 -11 -52 -54 -106 -96 l-100
-78 0 -267 0 -268 186 186 186 186 -12 132 c-13 144 -9 161 36 161 32 0 40
-21 49 -124 l7 -89 102 102 c100 99 128 115 154 89 23 -23 11 -44 -89 -144
l-101 -101 33 -6 c19 -3 61 -9 94 -13 33 -3 66 -11 73 -16 18 -15 15 -45 -7
-60 -16 -12 -40 -11 -146 1 l-126 15 -184 -184 c-102 -102 -185 -188 -185
-193 0 -4 116 -6 257 -5 l257 3 89 103 c86 99 110 115 135 90 23 -23 12 -50
-50 -122 l-61 -71 151 -3 c139 -2 152 -4 162 -22 8 -14 8 -26 0 -40 -10 -18
-23 -20 -155 -22 l-145 -3 55 -70 c30 -38 55 -80 55 -92 0 -25 -30 -46 -53
-37 -8 3 -49 50 -92 105 l-77 99 -267 0 -266 0 186 -186 186 -186 127 10 c70
6 133 9 141 6 18 -7 27 -32 20 -55 -7 -20 -27 -25 -133 -35 l-74 -6 101 -103
c99 -100 115 -127 89 -153 -24 -24 -45 -11 -143 88 -62 62 -102 95 -106 88 -4
-6 -10 -47 -14 -90 -9 -100 -38 -134 -79 -92 -19 19 -19 3 0 153 l16 124 -191
191 -191 191 0 -265 0 -265 105 -88 c102 -86 118 -110 93 -135 -23 -23 -53
-11 -123 48 l-70 59 -5 -152 -5 -152 -35 0 -35 0 -3 148 c-1 81 -5 147 -8 147
-3 0 -36 -25 -73 -55 -68 -55 -97 -65 -119 -43 -26 26 -10 49 88 125 l99 78 1
270 0 270 -182 -182 -181 -181 10 -129 c8 -104 7 -132 -4 -150 -15 -26 -31
-29 -56 -10 -13 9 -19 35 -23 105 -4 50 -10 92 -13 92 -4 0 -51 -45 -106 -100
-98 -99 -119 -112 -143 -88 -26 26 -11 54 84 149 107 108 108 102 -6 114 -80
9 -100 19 -100 49 0 43 16 47 155 30 l128 -16 191 191 191 191 -261 0 -262 0
-73 -87 c-93 -110 -106 -123 -123 -123 -18 0 -46 27 -46 44 0 7 29 47 66 89
l65 76 -152 3 c-132 3 -153 5 -163 20 -8 13 -8 23 0 35 10 16 31 18 153 21 77
1 141 6 141 11 0 4 -25 40 -55 80 -30 40 -55 77 -55 81 0 15 31 40 50 40 11 0
49 -39 100 -105 l83 -105 263 0 c145 0 264 3 264 8 0 4 -81 88 -179 186 l-179
179 -129 -10 c-144 -10 -173 -5 -173 31 0 36 17 44 118 51 50 4 92 10 92 14 0
3 -45 51 -100 106 -107 107 -123 139 -74 151 23 6 38 -5 130 -97 57 -57 104
-99 104 -93 0 39 24 181 32 192 16 19 58 15 66 -8 4 -11 1 -77 -7 -146 l-15
-125 187 -187 187 -187 0 265 0 265 -100 84 c-105 89 -122 119 -79 141 24 13
36 7 124 -68 l60 -52 3 147 c1 87 7 152 14 160 13 16 40 17 56 1z m-2550 -156
l3 -114 42 35 c73 59 107 67 107 24 -1 -15 -25 -41 -75 -80 l-75 -59 0 -196 0
-197 136 135 135 135 -6 101 c-6 86 -4 102 10 114 27 23 46 -8 53 -85 l5 -67
77 77 c79 78 112 92 118 50 2 -14 -20 -42 -68 -90 -38 -38 -70 -72 -70 -76 0
-3 28 -9 61 -12 73 -6 103 -27 77 -53 -15 -15 -27 -16 -109 -5 l-93 12 -140
-141 -141 -140 192 0 193 0 62 75 c42 49 70 74 84 75 41 0 37 -30 -12 -89
l-46 -56 113 -5 c114 -5 114 -5 114 -30 l0 -25 -113 -3 -113 -3 46 -58 c48
-61 52 -91 11 -91 -14 1 -40 25 -79 75 l-59 75 -196 0 -197 0 135 -136 135
-136 101 6 c85 5 103 4 114 -9 22 -27 -9 -46 -85 -53 l-67 -5 77 -77 c52 -52
76 -83 73 -96 -7 -40 -40 -27 -114 47 -79 78 -79 78 -87 -5 -3 -26 -12 -55
-21 -64 -15 -15 -17 -15 -32 0 -15 15 -16 27 -5 109 l12 93 -141 140 -140 141
0 -192 0 -192 74 -63 c48 -41 75 -71 75 -84 2 -41 -29 -37 -88 12 l-56 46 -5
-113 c-5 -114 -5 -114 -30 -114 l-25 0 -3 113 -3 113 -58 -46 c-61 -48 -91
-52 -91 -11 1 14 25 39 75 79 l75 57 0 197 0 198 -136 -135 -135 -135 6 -101
c5 -81 4 -102 -8 -112 -35 -29 -57 15 -57 113 l0 40 -79 -79 c-53 -53 -84 -77
-97 -74 -40 7 -27 40 47 114 81 81 82 75 -23 89 -50 6 -69 28 -45 52 11 12 29
12 106 2 l93 -12 141 142 142 141 -192 0 -193 0 -62 -75 c-42 -49 -70 -74 -84
-75 -41 0 -37 30 12 89 l46 56 -113 5 c-114 5 -114 5 -114 30 l0 25 113 3 113
3 -46 58 c-30 38 -43 64 -39 74 13 34 44 17 105 -58 l62 -75 196 0 196 0 -135
136 -135 135 -101 -6 c-85 -6 -102 -4 -113 9 -23 27 3 43 81 51 l70 7 -77 78
c-52 52 -76 83 -73 96 7 40 40 27 114 -47 81 -81 75 -82 89 23 7 51 28 69 53
44 13 -12 13 -28 3 -107 l-12 -93 141 -140 140 -141 0 192 0 192 -75 63 c-74
62 -94 99 -61 111 15 6 79 -35 105 -66 7 -9 17 -17 22 -17 5 0 9 49 9 108 0
60 3 112 7 116 4 4 16 6 28 4 19 -3 20 -11 23 -116z m-391 -2024 c31 -34 36
-63 18 -97 -18 -36 -43 -51 -85 -51 -70 0 -107 95 -58 147 30 32 96 32 125 1z
m-33 -244 c3 -9 6 -73 6 -142 l1 -127 107 114 c81 85 113 113 125 108 9 -3 17
-14 17 -24 0 -10 -56 -78 -125 -152 l-125 -133 0 -102 0 -101 132 133 c78 79
138 132 147 130 42 -8 19 -42 -128 -194 l-151 -156 0 -301 0 -302 210 210 210
210 0 220 c0 159 3 224 12 233 17 17 45 15 52 -4 3 -9 6 -97 6 -197 l0 -181
70 69 70 69 0 87 c0 168 12 298 28 304 8 3 21 0 29 -7 13 -10 14 -36 8 -168
l-7 -155 100 98 c54 53 103 97 109 97 12 0 33 -21 33 -33 0 -6 -43 -53 -95
-107 l-96 -97 158 1 c156 1 158 1 161 -21 4 -29 -4 -30 -213 -38 l-170 -5 -70
-70 -70 -70 192 0 c167 0 192 -2 197 -16 14 -36 -8 -41 -236 -47 l-223 -7
-210 -210 -210 -210 305 0 305 0 157 157 c135 135 159 155 172 144 9 -8 16
-18 16 -25 0 -6 -60 -70 -132 -143 l-133 -133 99 0 98 0 139 131 c135 128 174
151 174 106 0 -10 -49 -67 -110 -128 l-110 -109 130 0 c72 0 136 -4 143 -9 8
-5 12 -17 10 -27 -3 -17 -16 -19 -143 -22 l-140 -3 115 -109 c98 -92 113 -112
104 -126 -6 -10 -16 -20 -22 -22 -6 -2 -73 55 -149 127 l-137 131 -106 0 -105
-1 138 -135 c136 -133 156 -164 114 -172 -12 -3 -70 48 -178 152 l-160 156
-302 0 -302 0 215 -215 215 -215 221 0 c185 0 224 -2 234 -15 10 -12 10 -18 0
-30 -10 -12 -46 -15 -204 -15 l-191 0 70 -70 70 -70 193 -7 c199 -6 222 -12
208 -49 -6 -15 -23 -16 -173 -11 l-166 6 102 -103 c72 -73 100 -108 95 -120
-12 -31 -39 -15 -131 76 l-93 93 0 -157 c0 -135 -2 -157 -16 -162 -35 -14 -41
10 -48 201 l-6 188 -75 75 -76 75 3 -200 3 -200 -25 0 c-24 0 -25 3 -32 85 -3
47 -6 150 -7 230 l-1 145 -210 210 -210 210 0 -305 0 -305 146 -145 c80 -80
150 -153 155 -163 11 -19 -3 -47 -24 -47 -6 0 -70 59 -144 132 l-133 132 0
-94 0 -95 131 -138 c129 -137 147 -167 104 -176 -14 -2 -48 27 -127 110 l-107
114 -1 -136 c0 -108 -3 -139 -15 -149 -8 -7 -22 -10 -30 -6 -12 4 -15 29 -15
141 0 74 -2 135 -5 135 -3 0 -51 -47 -106 -105 -98 -102 -130 -122 -143 -89
-4 10 36 60 124 155 l130 139 0 102 0 103 -139 -139 c-98 -98 -144 -137 -155
-133 -9 4 -16 14 -16 23 0 9 70 90 155 179 l155 163 -2 299 -3 298 -212 -214
-213 -215 0 -215 c0 -119 -4 -222 -9 -229 -5 -8 -17 -12 -27 -10 -18 3 -19 17
-22 198 l-2 194 -70 -69 -70 -69 -1 -121 c-1 -66 -4 -154 -8 -195 -6 -72 -7
-75 -31 -75 l-25 0 2 164 2 165 -98 -98 c-68 -68 -104 -97 -117 -94 -43 8 -27
40 68 135 l93 94 -155 -3 -155 -3 0 25 0 25 185 8 185 9 75 75 75 75 -187 -5
c-158 -5 -190 -4 -202 9 -32 32 -9 41 122 47 70 4 172 7 227 7 l100 0 215 215
215 215 -305 0 -305 0 -155 -155 c-85 -85 -163 -155 -173 -155 -10 0 -20 7
-24 16 -4 11 35 57 133 155 l139 139 -97 0 -96 0 -104 -98 c-173 -163 -188
-175 -204 -161 -8 6 -14 17 -14 24 0 8 53 63 117 124 l118 111 -148 0 c-123 0
-149 3 -153 15 -4 8 -1 22 6 30 10 12 40 15 144 15 l131 1 -108 104 c-71 69
-107 111 -105 122 8 42 40 23 171 -101 l132 -126 104 0 104 0 -138 133 c-104
100 -137 137 -132 150 3 9 15 17 25 17 10 0 88 -67 174 -150 l156 -150 304 0
303 0 -215 215 -215 215 -227 0 c-236 0 -247 2 -226 43 8 15 28 17 201 17
l192 0 -68 68 -67 67 -190 5 c-192 5 -219 11 -207 44 5 14 31 16 169 16 l163
0 -99 99 c-95 95 -113 127 -78 139 7 2 58 -40 113 -95 l101 -98 -4 154 c-3
140 -1 155 15 165 36 22 44 -12 49 -205 l5 -181 70 -70 71 -71 -5 189 c-5 161
-4 191 9 202 9 7 22 10 30 7 12 -5 16 -38 21 -163 4 -86 7 -189 7 -227 l0 -70
208 -208 c114 -114 211 -207 215 -207 4 0 7 133 7 297 l0 296 -161 163 c-137
139 -160 166 -149 179 7 8 18 15 24 15 6 0 70 -58 141 -130 71 -71 133 -130
137 -130 5 0 8 42 8 94 l0 94 -130 138 c-71 77 -130 146 -130 155 0 9 8 20 18
24 13 5 43 -20 129 -112 l113 -118 0 141 c0 77 3 144 7 147 12 13 41 7 47 -9z
m-1035 -191 c12 -10 24 -35 28 -55 5 -32 1 -41 -25 -68 -40 -40 -88 -41 -126
-4 -56 57 -18 144 62 144 23 0 49 -7 61 -17z m2135 -4 c58 -46 19 -149 -57
-149 -88 0 -126 105 -58 157 25 20 85 15 115 -8z m-4056 -946 c6 -15 12 -35
12 -45 0 -10 5 -18 10 -18 6 0 9 12 8 28 -2 17 1 26 10 25 6 -2 12 6 12 17 0
29 45 27 61 -2 9 -16 9 -23 0 -26 -6 -2 -11 -10 -11 -17 0 -8 -9 -19 -20 -25
-11 -6 -18 -16 -14 -21 4 -6 14 -3 26 7 11 11 22 14 26 9 4 -6 16 -10 27 -10
15 0 21 -8 23 -29 4 -36 -11 -54 -32 -37 -11 9 -15 9 -18 0 -3 -9 -9 -9 -25 0
-36 19 -47 12 -19 -10 15 -12 25 -24 22 -27 -3 -3 2 -11 12 -18 16 -11 16 -13
-2 -33 -25 -27 -56 -28 -56 -1 0 11 -4 20 -10 20 -5 0 -10 11 -10 25 0 14 -4
25 -10 25 -5 0 -10 -11 -10 -25 0 -14 -4 -25 -10 -25 -5 0 -10 -9 -10 -20 0
-30 -56 -28 -63 2 -4 12 -2 27 3 33 6 7 7 15 4 18 -4 3 5 12 20 18 14 7 26 16
26 21 0 10 -24 11 -34 1 -16 -16 -63 -10 -75 9 -19 30 -4 61 25 54 14 -4 24
-2 24 4 0 7 9 5 22 -4 25 -18 38 -20 38 -8 0 5 -12 14 -26 20 -14 7 -22 17
-18 23 3 6 2 14 -4 18 -6 4 -9 17 -5 29 8 33 54 30 71 -5z m1476 -121 c30 -28
37 -59 22 -97 -38 -91 -166 -65 -166 33 0 38 23 71 60 85 22 8 62 -2 84 -21z
m3024 -4 c33 -32 31 -99 -4 -127 -61 -48 -144 -10 -144 67 0 80 87 116 148 60z
m-3903 -223 c7 -16 16 -37 18 -45 4 -12 6 -11 6 2 2 33 35 73 61 73 14 0 25
-4 25 -10 0 -5 4 -16 8 -22 5 -8 -3 -25 -22 -45 -36 -38 -40 -53 -10 -38 11 7
27 9 34 6 8 -3 17 -1 20 4 10 17 21 11 34 -16 10 -22 9 -28 -6 -40 -18 -14
-62 -14 -95 1 -12 4 -18 3 -18 -5 0 -6 9 -14 20 -17 11 -3 27 -19 35 -36 14
-27 14 -33 1 -46 -19 -19 -56 -22 -56 -5 0 7 -6 17 -14 21 -8 4 -16 22 -19 38
l-4 30 -2 -31 c-1 -32 -33 -74 -55 -74 -8 0 -21 11 -30 25 -15 23 -15 26 -1
31 9 4 14 12 12 19 -3 6 4 17 14 23 10 7 19 17 19 23 0 7 -10 5 -24 -5 -16
-10 -27 -12 -31 -5 -5 7 -11 6 -21 -2 -8 -6 -15 -10 -17 -8 -23 41 -24 45 -9
66 8 13 19 20 24 17 6 -4 29 -8 52 -10 38 -2 39 -1 22 12 -11 8 -22 14 -25 14
-3 0 -12 12 -18 27 -11 22 -10 29 3 44 23 26 53 19 69 -16z m-736 -129 c11
-20 10 -28 -4 -50 -10 -14 -19 -26 -21 -26 -2 0 -10 13 -18 29 -13 25 -13 31
0 50 19 27 28 27 43 -3z m-169 -42 c35 -38 41 -50 35 -72 -4 -15 -8 -29 -10
-30 -8 -8 -46 11 -54 26 -13 25 -30 122 -21 122 4 0 26 -21 50 -46z m345 4
c-21 -72 -39 -107 -61 -117 -22 -10 -26 -8 -36 14 -11 24 -8 30 37 75 54 55
70 62 60 28z m-217 -45 c8 -3 29 2 49 11 59 28 77 -8 19 -39 -31 -17 -34 -23
-39 -78 -9 -104 -47 -102 -47 2 0 46 -5 60 -26 82 -17 18 -24 34 -20 45 6 15
8 15 29 0 12 -9 28 -19 35 -23z m-740 5 c19 -19 14 -45 -10 -62 l-22 -16 27 0
c29 0 36 -14 14 -27 -8 -4 -16 -16 -20 -25 -7 -20 -61 -25 -73 -7 -4 7 -8 29
-10 50 -4 41 10 51 35 27 11 -11 12 -9 3 8 -9 16 -7 26 4 42 17 25 34 28 52
10z m-217 -48 c10 -6 19 -18 19 -27 0 -14 2 -14 14 3 14 18 15 18 21 2 4 -10
4 -25 1 -34 -3 -8 -2 -12 3 -9 14 8 23 -12 16 -36 -7 -22 -42 -39 -63 -32 -9
4 -9 9 -2 18 8 9 4 13 -15 13 -32 0 -44 10 -25 22 12 8 12 10 -2 15 -22 9 -30
33 -18 56 12 22 23 23 51 9z m912 -47 c3 -32 8 -68 12 -80 11 -35 -13 -28 -54
15 -20 20 -45 42 -55 48 -28 15 -11 37 24 30 24 -4 29 -1 34 19 12 47 33 29
39 -32z m-133 12 c0 -36 5 -43 80 -107 32 -28 34 -52 2 -41 -9 4 -37 20 -61
36 -43 29 -44 29 -78 13 -19 -9 -39 -14 -44 -11 -19 12 -8 32 26 48 31 15 35
21 35 57 0 33 3 40 20 40 16 0 20 -7 20 -35z m282 13 c2 -18 10 -23 33 -23 40
0 47 -31 9 -45 -15 -6 -42 -24 -61 -41 -42 -37 -58 -30 -38 18 8 19 15 46 15
58 0 52 35 79 42 33z m-350 -13 c14 -32 0 -50 -32 -40 -25 8 -43 46 -26 57 22
15 47 7 58 -17z m478 -32 c0 -31 6 -43 32 -64 21 -18 29 -31 25 -43 -6 -15
-10 -15 -46 6 l-39 22 -44 -21 c-95 -47 -119 -19 -26 31 54 29 58 33 58 69 0
30 4 37 20 37 16 0 20 -7 20 -37z m100 5 c0 -18 -31 -48 -51 -48 -24 0 -32 16
-19 40 12 22 70 29 70 8z m-1151 -61 c-2 -3 -14 -8 -26 -11 -20 -6 -23 -4 -23
17 0 34 11 40 34 18 11 -11 18 -22 15 -24z m154 2 c-2 -21 -1 -22 8 -6 13 21
52 22 70 1 18 -22 -1 -49 -35 -49 -21 1 -25 -3 -20 -17 7 -23 -13 -23 -38 -1
-18 16 -18 16 -12 -1 5 -14 3 -17 -12 -14 -40 7 -52 88 -14 88 10 0 21 7 24
16 9 24 31 10 29 -17z m-83 0 c0 -17 -20 -49 -30 -49 -6 0 -10 7 -10 15 0 8
-6 15 -12 15 -17 1 22 30 39 30 7 0 13 -5 13 -11z m-45 -56 c4 -19 9 -22 19
-14 10 8 18 6 31 -9 27 -30 20 -33 -65 -27 -24 2 -40 -3 -51 -16 -8 -10 -25
-17 -36 -15 -17 2 -19 7 -12 27 8 20 11 22 26 10 15 -13 16 -11 10 13 -5 20
-2 33 10 46 24 24 60 16 68 -15z m-92 7 c-6 -23 -23 -26 -41 -8 -19 19 -14 28
17 28 24 0 28 -3 24 -20z m696 1 c15 -11 42 -23 61 -28 47 -12 49 -31 3 -38
-21 -3 -50 -13 -65 -21 -14 -8 -31 -14 -37 -14 -17 0 -13 40 4 47 14 5 14 8 0
29 -14 22 -13 44 2 44 2 0 17 -9 32 -19z m-744 -18 c8 -8 15 -23 15 -32 0 -22
-25 -45 -40 -36 -5 3 -10 0 -10 -8 0 -8 -7 -17 -15 -21 -10 -4 -15 1 -15 16 0
17 -3 19 -12 10 -16 -16 -53 -15 -67 2 -21 25 4 59 39 54 25 -4 27 -2 19 13
-8 16 -4 18 31 17 23 0 47 -7 55 -15z m683 1 c22 -15 22 -17 6 -35 -9 -10 -27
-19 -39 -19 -29 0 -115 30 -115 40 0 5 24 13 53 18 73 14 70 14 95 -4z m284
-1 c25 -22 23 -59 -4 -77 -29 -20 -47 -20 -70 1 -25 22 -23 59 4 77 29 20 47
20 70 -1z m203 -3 c3 -5 -3 -18 -14 -29 -17 -17 -18 -21 -5 -32 16 -13 18 -35
4 -44 -5 -3 -22 2 -37 12 -14 10 -42 23 -61 28 -55 16 -50 32 12 45 31 6 58
16 61 21 8 12 32 12 40 -1z m108 -36 c26 -9 47 -20 47 -24 0 -8 -85 -30 -114
-30 -7 0 -21 9 -31 20 -15 16 -15 22 -5 35 16 19 45 19 103 -1z m692 6 c11
-18 -6 -50 -25 -50 -25 0 -43 33 -28 48 15 15 45 16 53 2z m-1835 -32 c0 -5 0
-15 0 -23 0 -20 -26 -19 -34 1 -10 26 -7 31 14 30 11 0 20 -4 20 -8z m83 5 c4
-3 2 -11 -3 -18 -7 -8 -2 -10 19 -7 34 5 53 -17 21 -25 l-21 -6 23 -11 c27
-13 35 -41 18 -61 -19 -23 -48 -18 -64 13 -8 15 -15 21 -16 15 0 -7 -7 -13
-16 -13 -12 0 -15 7 -12 24 4 17 1 23 -9 19 -21 -8 -16 34 7 57 20 20 41 25
53 13z m635 -25 c-2 -7 -27 -26 -55 -43 -43 -26 -52 -36 -57 -67 -3 -21 -8
-38 -10 -38 -3 0 -11 -3 -20 -6 -13 -5 -16 2 -16 39 0 39 -4 49 -30 67 -56 40
-31 67 29 33 30 -17 32 -17 68 3 43 25 97 31 91 12z m-748 -29 c6 -10 6 -20 2
-23 -5 -3 -7 -20 -4 -38 l5 -33 -23 20 c-22 19 -23 19 -16 1 11 -32 -3 -56
-34 -56 -37 0 -50 33 -24 61 16 17 16 19 1 19 -10 0 -17 7 -17 15 0 8 7 15 16
15 10 0 14 5 10 15 -4 10 2 19 16 24 29 11 56 3 68 -20z m977 1 c41 -30 43
-30 78 -15 21 8 41 12 46 9 18 -11 8 -32 -21 -44 -19 -8 -32 -22 -36 -39 -12
-55 -16 -62 -32 -59 -13 3 -16 13 -14 43 3 38 0 42 -43 69 -25 15 -50 37 -56
47 -16 31 30 24 78 -11z m-202 -27 c-3 -16 -9 -48 -13 -73 -8 -53 -37 -68 -48
-25 -5 19 -12 25 -24 22 -10 -2 -24 -1 -31 3 -17 11 3 36 35 44 13 3 31 17 40
31 23 35 51 34 41 -2z m117 10 c10 -9 18 -21 18 -28 0 -6 16 -19 36 -28 42
-20 40 -41 -3 -45 -21 -2 -33 -10 -36 -23 -3 -10 -12 -19 -21 -19 -12 0 -16
10 -16 43 0 23 -3 59 -6 80 -7 41 0 46 28 20z m986 -5 c1 -8 -9 -20 -23 -26
-21 -10 -28 -9 -46 9 -11 11 -17 23 -15 28 9 14 81 5 84 -11z m-1042 -14 c4
-14 4 -45 1 -69 -6 -41 -4 -45 29 -70 28 -22 33 -30 23 -41 -10 -12 -16 -11
-45 7 -30 18 -37 19 -69 8 -54 -20 -66 1 -21 36 25 19 36 35 36 54 0 37 19
101 30 101 5 0 13 -12 16 -26z m-271 -14 c12 -20 -15 -50 -46 -50 -27 0 -30 3
-23 23 4 12 12 25 18 29 16 11 44 10 51 -2z m1285 -15 c56 0 65 -15 22 -36
-37 -19 -56 -17 -91 10 -26 20 -20 48 8 35 9 -5 36 -8 61 -9z m-719 -36 c12
-24 0 -39 -33 -39 -17 0 -38 28 -38 49 0 21 59 12 71 -10z m363 -5 c20 -8 21
-38 1 -54 -23 -19 -59 15 -44 41 10 20 18 23 43 13z m301 -16 l37 -21 44 21
c53 26 50 26 57 8 7 -17 -69 -66 -101 -66 -25 0 -105 58 -97 70 9 15 20 12 60
-12z m-1102 -62 c-9 -17 -84 -78 -90 -73 -5 5 28 100 41 116 5 7 19 17 31 21
17 6 20 3 23 -21 2 -16 0 -35 -5 -43z m1517 49 c17 -21 5 -45 -24 -45 -28 0
-37 17 -24 43 11 21 31 22 48 2z m-1255 -7 c16 -7 28 -23 34 -47 26 -106 24
-111 -26 -58 -40 42 -53 69 -46 95 6 26 5 25 38 10z m625 -22 c0 -22 -32 -56
-52 -56 -25 0 14 79 40 80 6 0 12 -11 12 -24z m60 10 c0 -47 -15 -77 -47 -97
-29 -18 -37 -19 -44 -8 -6 10 0 21 21 39 20 17 30 34 30 53 0 20 5 27 20 27
11 0 20 -6 20 -14z m48 -57 c-3 -54 -3 -54 -56 -82 -48 -26 -53 -27 -59 -11
-4 10 -2 19 3 21 43 15 73 45 79 80 10 58 14 68 26 56 6 -6 9 -34 7 -64z m320
5 c3 -43 7 -52 37 -72 35 -22 47 -52 21 -52 -8 0 -34 15 -57 33 -42 31 -43 34
-40 82 3 56 8 68 24 62 7 -2 13 -26 15 -53z m60 16 c2 -20 12 -40 23 -48 10
-7 19 -22 19 -33 0 -19 0 -19 -39 0 -41 22 -51 37 -51 80 0 55 43 56 48 1z
m49 23 c3 -10 12 -25 20 -34 11 -14 11 -18 -1 -28 -27 -23 -74 47 -49 72 11
12 23 8 30 -10z m-317 -53 c12 -22 14 -90 3 -90 -14 1 -60 44 -72 67 -12 24
-15 66 -5 76 9 8 61 -29 74 -53z m136 -5 c-7 -35 -55 -85 -82 -85 -17 0 -17 4
-4 52 13 44 83 110 88 82 2 -9 1 -31 -2 -49z m-1108 -9 c9 -20 8 -29 -7 -47
l-18 -23 -18 27 c-17 26 -17 28 0 47 23 26 29 25 43 -4z m2104 -56 c26 -27 30
-36 25 -67 -9 -52 -38 -78 -88 -78 -81 0 -117 88 -60 146 40 40 82 39 123 -1z
m2117 15 c33 -16 41 -33 41 -80 0 -25 -8 -40 -31 -59 -17 -14 -39 -26 -49 -26
-88 0 -130 107 -63 160 30 24 63 25 102 5z m-5392 -10 c33 -23 38 -63 11 -93
l-23 -25 25 7 c47 13 55 12 52 -9 -2 -11 -9 -23 -15 -27 -7 -4 -21 -14 -32
-23 -19 -16 -19 -16 8 -10 36 7 36 -16 1 -44 -34 -27 -74 -27 -102 -1 -31 29
-28 44 8 37 41 -9 38 -1 -7 20 -25 12 -39 26 -41 41 -4 24 4 27 42 12 31 -11
34 0 6 18 -38 23 -12 112 33 112 7 0 22 -7 34 -15z m2103 -45 l35 -19 -37 -15
c-47 -20 -64 -20 -113 3 l-40 19 35 15 c46 21 77 20 120 -3z m263 -16 c21 -13
18 -16 -36 -34 -33 -10 -44 -10 -78 5 -21 10 -39 21 -39 26 0 4 19 14 43 22
43 14 65 10 110 -19z m-388 -47 l40 -23 0 -64 c0 -51 -3 -65 -15 -65 -12 0
-15 12 -14 51 1 48 0 51 -37 72 -37 22 -53 52 -26 52 6 0 30 -11 52 -23z m170
-29 c-5 -32 -16 -51 -42 -75 -20 -18 -40 -33 -45 -33 -12 0 -9 52 5 80 10 20
70 70 84 70 3 0 2 -19 -2 -42z m94 -1 c15 -17 25 -43 29 -72 5 -45 4 -47 -15
-36 -41 22 -73 71 -73 112 0 35 2 39 18 30 9 -5 28 -21 41 -34z m179 21 c-3
-7 -21 -22 -41 -33 -30 -16 -37 -26 -37 -50 0 -46 -11 -75 -27 -75 -11 0 -13
14 -11 62 3 61 4 63 43 85 44 25 79 30 73 11z m-492 -29 c30 -18 34 -25 34
-65 0 -32 -4 -44 -15 -44 -10 0 -15 10 -15 30 0 20 -8 35 -25 46 -14 9 -25 25
-25 35 0 24 5 24 46 -2z m-1607 -25 c28 -35 26 -48 -6 -74 -19 -15 -35 -19
-57 -15 l-31 6 29 -27 c29 -25 29 -27 11 -40 -16 -12 -23 -11 -52 7 -35 22
-55 21 -28 -1 19 -16 19 -26 -1 -34 -37 -14 -84 33 -84 84 0 47 24 61 39 22
10 -24 11 -23 7 16 -3 29 1 47 11 57 21 21 33 19 33 -7 0 -20 18 -61 21 -48 0
3 2 16 3 29 6 52 71 68 105 25z m2127 15 c3 -6 -8 -24 -25 -39 -19 -18 -31
-39 -31 -54 0 -16 -6 -26 -14 -26 -17 0 -26 22 -26 61 0 23 7 32 38 48 44 24
49 24 58 10z m-2736 -34 c18 -9 30 -24 30 -35 0 -11 5 -20 10 -20 6 0 10 14
10 30 0 23 5 30 19 30 22 0 31 -18 32 -68 1 -21 3 -29 6 -17 8 31 20 40 38 25
25 -21 18 -68 -14 -101 -16 -16 -36 -29 -45 -29 -25 0 -29 20 -9 42 19 23 7
18 -38 -14 -26 -20 -59 -16 -59 7 0 7 10 19 23 28 26 17 18 33 -10 18 -27 -14
-83 20 -83 51 0 22 36 68 52 68 5 0 22 -7 38 -15z m2184 -4 c20 -22 18 -54 -4
-59 -14 -2 -40 45 -40 71 0 14 27 6 44 -12z m576 -15 c0 -8 -4 -18 -10 -21 -5
-3 -10 -15 -10 -26 0 -12 -7 -19 -20 -19 -13 0 -20 7 -20 20 0 21 33 60 50 60
6 0 10 -6 10 -14z m-646 -32 c20 -19 20 -19 0 -38 -12 -12 -20 -13 -35 -6 -21
12 -26 46 -6 53 20 9 25 8 41 -9z m386 -15 c27 -17 50 -35 50 -39 0 -20 -23
-20 -59 1 -38 21 -40 21 -85 4 -50 -19 -67 -15 -46 10 11 13 74 52 87 55 2 0
25 -14 53 -31z m-2140 -24 c0 -33 -4 -45 -15 -45 -8 0 -15 7 -15 16 0 11 -6
14 -20 9 -33 -11 -24 23 13 45 17 11 33 20 35 20 1 0 2 -20 2 -45z m-113 3
c18 -15 16 -28 -3 -28 -9 0 -23 -8 -30 -17 -12 -16 -15 -16 -24 -3 -5 8 -10
30 -10 47 0 31 1 32 27 22 15 -6 33 -15 40 -21z m2578 18 c11 -8 16 -19 12
-30 -9 -24 -36 -31 -54 -14 -12 12 -13 20 -4 37 14 25 21 26 46 7z m-1535 -61
c8 -11 13 -30 12 -41 -2 -12 2 -25 7 -29 7 -4 11 7 11 29 0 20 5 36 10 36 6 0
10 6 10 13 0 9 12 14 30 15 20 0 30 -4 30 -14 0 -8 5 -14 10 -14 18 0 10 -18
-10 -25 -11 -4 -18 -11 -14 -16 3 -5 -5 -19 -18 -30 -20 -18 -21 -20 -3 -13
46 16 85 14 95 -7 18 -33 4 -58 -33 -57 -18 0 -40 5 -50 10 -32 17 -30 1 5
-33 31 -31 32 -36 21 -60 -23 -48 -83 -9 -83 53 0 10 -5 18 -11 18 -7 0 -9
-11 -6 -26 3 -16 0 -28 -9 -31 -8 -3 -14 -11 -14 -18 0 -21 -42 -26 -56 -7
-16 20 -18 42 -4 42 6 0 10 8 10 19 0 10 9 21 20 24 11 3 20 11 20 17 0 8 -7
9 -17 5 -65 -27 -117 -4 -93 40 10 19 20 23 44 21 17 -2 39 -7 49 -11 10 -4
17 -3 17 3 0 6 -8 13 -17 16 -10 3 -23 18 -30 32 -25 55 31 87 67 39z m1198 5
c50 -31 37 -64 -15 -37 -20 11 -34 12 -56 5 -46 -17 -57 6 -16 31 42 26 46 26
87 1z m-2168 -24 c0 -7 9 -21 20 -31 18 -16 19 -20 5 -27 -8 -5 -15 -20 -15
-33 0 -21 -5 -24 -32 -23 -18 0 -39 -1 -47 -3 -9 -2 -17 5 -19 16 -2 11 -11
26 -20 33 -16 12 -16 14 1 23 9 6 17 20 17 33 0 20 5 23 45 24 30 0 45 -4 45
-12z m103 -22 l31 -17 -28 -23 c-37 -32 -60 -32 -52 0 3 14 1 28 -4 31 -12 7
-4 25 11 25 6 0 24 -7 42 -16z m-241 -27 c-9 -10 -9 -16 0 -25 25 -25 -23 -27
-61 -3 -13 8 -13 12 -1 26 19 22 53 35 64 24 5 -5 5 -14 -2 -22z m2297 14 c8
-5 11 -16 8 -24 -7 -17 -79 -15 -85 3 -9 25 47 40 77 21z m-1989 -47 c0 -3 -5
-14 -10 -25 -14 -24 -5 -24 27 1 14 11 34 20 44 20 31 0 34 -22 6 -42 -34 -25
-35 -41 -2 -26 18 8 32 8 55 -2 25 -10 30 -18 30 -45 0 -24 -7 -39 -26 -54
-24 -19 -27 -19 -50 -4 -14 9 -31 28 -39 42 l-14 26 -1 -31 c0 -17 -3 -34 -6
-37 -13 -13 -43 14 -50 45 -4 18 -9 27 -11 21 -8 -22 -31 -14 -37 13 -13 49
19 104 61 104 12 0 23 -3 23 -6z m4141 -30 c33 -36 31 -90 -5 -120 -60 -53
-146 -15 -146 64 0 81 95 116 151 56z m-4487 -9 c22 -20 27 -32 24 -62 -2 -27
-8 -39 -20 -41 -13 -2 -18 3 -20 20 0 13 -4 1 -7 -27 -5 -41 -9 -50 -26 -50
-14 0 -21 8 -23 28 -2 15 -8 27 -14 27 -5 0 -7 -7 -4 -16 6 -17 -35 -64 -56
-64 -30 0 -58 31 -58 64 0 44 36 71 76 56 41 -16 40 -5 -2 24 l-37 25 26 12
c20 9 29 8 48 -5 30 -21 63 -22 35 -1 -10 7 -15 18 -11 24 11 18 41 12 69 -14z
m236 -41 c0 -38 -8 -41 -50 -19 -34 17 -40 45 -11 45 10 0 22 7 25 16 10 27
36 -3 36 -42z m2085 26 c0 -18 -6 -26 -23 -28 -13 -2 -25 3 -28 12 -10 26 4
48 28 44 17 -2 23 -10 23 -28z m-2210 -7 c9 4 15 1 15 -8 0 -17 -49 -57 -64
-52 -16 5 -19 43 -5 68 11 21 12 22 25 5 7 -11 20 -16 29 -13z m92 -74 c23
-20 16 -42 -12 -37 -36 7 -31 -4 13 -27 24 -13 38 -28 40 -44 3 -20 1 -23 -15
-16 -10 4 -29 10 -43 13 l-25 5 28 -26 c15 -14 27 -35 27 -47 0 -26 -34 -60
-60 -60 -25 0 -60 34 -60 59 0 10 9 30 21 45 23 29 7 37 -27 11 -26 -20 -34
-19 -34 5 0 19 9 29 55 65 19 15 19 15 -7 9 -24 -5 -28 -3 -28 15 0 42 87 63
127 30z m1593 -4 c7 -8 10 -26 8 -40 -4 -19 -1 -25 13 -25 25 0 24 -15 -2 -33
-15 -11 -17 -16 -7 -20 10 -4 8 -10 -6 -21 -11 -9 -25 -16 -31 -16 -19 0 -51
31 -38 36 8 4 5 12 -8 25 -22 22 -17 42 7 32 12 -4 14 0 8 22 -5 21 -2 31 11
42 24 17 30 16 45 -2z m-157 -107 c22 1 27 -3 27 -23 0 -17 4 -23 14 -19 19 7
26 -19 12 -47 -14 -30 -63 -41 -52 -12 6 14 5 16 -5 6 -14 -14 -49 -18 -49 -5
0 4 5 13 12 20 9 9 8 12 -8 12 -41 0 -60 50 -26 69 9 6 24 8 32 4 8 -3 27 -6
43 -5z m341 -1 c23 -17 17 -48 -12 -63 -15 -7 -20 -14 -13 -18 23 -14 11 -28
-19 -22 -17 3 -30 1 -30 -4 0 -15 -27 -12 -44 6 -20 19 -21 64 -2 64 7 0 16 9
19 20 6 21 37 28 37 8 0 -8 6 -6 17 5 21 20 24 21 47 4z m-226 -59 c16 -16 15
-31 -2 -25 -8 3 -17 -2 -21 -11 -6 -16 -7 -16 -16 0 -19 34 12 63 39 36z m80
-16 c2 -15 -2 -22 -12 -22 -9 0 -16 5 -16 11 0 5 -4 8 -9 4 -5 -3 -12 -1 -16
4 -6 11 24 32 40 27 6 -1 11 -12 13 -24z m-32 -37 c4 -10 14 -13 30 -9 14 4
31 1 39 -6 14 -11 13 -15 -5 -27 -22 -15 -44 -9 -34 10 4 7 -4 2 -18 -10 -30
-28 -59 -29 -76 -3 -10 16 -10 24 0 40 15 23 56 27 64 5z m-84 -30 c-5 -29 -8
-29 -41 -11 -23 13 -23 14 -5 24 34 20 52 15 46 -13z m-41 -25 c10 -6 19 -18
19 -28 1 -15 3 -15 16 3 11 14 18 16 21 8 3 -7 11 -13 19 -13 8 0 14 -4 14 -9
0 -13 -34 -23 -52 -16 -9 4 -18 -1 -22 -10 -3 -9 -10 -13 -16 -10 -6 3 -10 -4
-10 -16 0 -17 -4 -20 -21 -16 -12 3 -30 0 -40 -6 -24 -15 -53 1 -57 32 -3 16
5 25 30 36 18 8 27 14 21 15 -16 0 -17 30 -2 30 6 0 19 -5 29 -10 16 -8 18 -8
14 5 -7 17 9 20 37 5z m229 0 c0 -6 10 -8 24 -4 25 6 44 -10 25 -21 -7 -5 -2
-12 13 -19 31 -16 33 -70 2 -74 -12 -2 -29 4 -38 13 -9 9 -16 12 -16 6 0 -20
-31 -11 -39 12 -5 12 -12 21 -17 19 -17 -5 -16 40 2 59 18 20 44 26 44 9z
m-70 -36 c0 -20 -27 -29 -45 -14 -14 11 -13 14 7 25 26 14 38 10 38 -11z m-39
-35 c11 -6 18 -17 15 -24 -2 -7 2 -19 10 -25 20 -18 18 -43 -3 -36 -15 5 -18
-1 -18 -31 0 -28 -5 -38 -18 -41 -29 -6 -49 18 -43 51 5 22 3 28 -8 24 -25
-10 -27 6 -4 30 12 13 16 23 10 23 -20 0 -13 16 11 28 28 14 25 14 48 1z
m-1064 -15 c3 -8 1 -26 -5 -38 -9 -21 -8 -22 14 -18 19 3 23 1 18 -11 -3 -9
-13 -18 -22 -22 -14 -5 -14 -7 -2 -16 13 -8 12 -12 -4 -24 -11 -8 -27 -15 -37
-15 -20 0 -43 25 -35 38 3 6 -1 15 -9 22 -21 18 -18 33 5 27 23 -6 24 -3 9 24
-7 15 -7 24 2 35 15 19 58 18 66 -2z m-197 -104 c16 -16 20 -17 20 -5 0 21 29
19 37 -2 4 -10 12 -22 20 -26 16 -10 17 -49 1 -65 -14 -14 -48 -16 -48 -4 0 5
-13 7 -30 4 -33 -5 -42 14 -12 26 13 5 11 8 -13 12 -33 6 -46 40 -25 66 16 19
26 18 50 -6z m374 4 c28 -28 12 -64 -28 -64 -16 0 -17 -3 -8 -12 19 -19 14
-31 -13 -26 -14 3 -25 1 -25 -3 0 -17 -40 -9 -52 10 -8 13 -16 17 -23 11 -13
-10 -55 -2 -55 11 0 14 37 29 54 23 9 -4 16 -1 16 6 0 7 7 10 15 6 10 -3 15 1
15 14 0 24 20 37 31 19 7 -12 11 -11 26 4 21 21 27 21 47 1z m-228 -58 c22
-17 19 -21 -18 -30 -23 -5 -28 -3 -28 12 0 34 16 40 46 18z m48 -55 c14 -15
15 -24 6 -40 -6 -12 -16 -22 -23 -22 -23 -2 -42 3 -48 13 -4 6 -14 8 -23 5
-24 -10 -58 14 -44 30 16 20 48 17 42 -4 -3 -11 4 -7 17 10 27 32 49 34 73 8z
m60 -7 c22 -8 20 -21 -4 -34 -26 -14 -40 -6 -33 20 6 21 12 24 37 14z m1551
-36 c33 -15 42 -51 20 -84 -20 -30 -12 -43 15 -26 56 34 55 -18 0 -54 -41 -27
-49 -45 -12 -25 29 16 34 14 30 -11 -5 -35 -48 -54 -95 -43 -29 8 -39 16 -41
34 -3 21 -1 23 22 17 38 -9 32 1 -11 21 -26 12 -39 26 -41 42 -3 21 -1 23 20
17 64 -20 64 -20 36 8 -35 34 -36 68 -2 95 31 25 27 24 59 9z m4655 -183 l0
-195 51 40 c60 47 113 64 191 58 86 -6 144 -46 187 -130 28 -56 34 -79 39
-156 9 -175 -48 -304 -163 -365 -30 -16 -58 -22 -115 -22 -65 0 -82 4 -123 28
-27 16 -51 36 -55 45 -4 12 -9 6 -17 -23 -11 -39 -13 -40 -58 -43 l-47 -3 0
480 0 481 55 0 55 0 0 -195z m-6392 169 c30 -21 27 -53 -8 -88 -25 -25 -30
-27 -36 -12 -6 15 -7 15 -18 0 -7 -9 -22 -14 -37 -12 -19 2 -24 9 -24 33 0 26
4 30 28 33 28 3 28 4 10 24 -18 21 -18 21 15 16 22 -3 32 -1 32 9 0 17 11 16
38 -3z m229 3 c-4 -10 3 -12 24 -9 30 4 37 -6 17 -26 -9 -9 -6 -12 14 -12 31
0 47 -32 28 -55 -16 -20 -39 -19 -62 2 -16 15 -18 15 -18 0 0 -10 -5 -14 -15
-11 -8 4 -15 15 -15 25 0 12 -5 16 -14 13 -9 -3 -17 3 -21 17 -5 15 -10 18
-15 9 -4 -6 -15 -10 -25 -8 -23 4 -32 28 -12 28 9 0 17 6 20 13 3 9 7 9 17 0
10 -9 17 -7 33 8 24 22 52 26 44 6z m2313 -11 c0 -6 -17 -44 -37 -84 -59 -117
-55 -239 10 -300 30 -28 117 -66 127 -55 4 4 22 42 40 85 40 97 137 245 192
293 85 74 185 96 258 56 72 -38 100 -150 64 -254 -46 -136 -234 -243 -443
-252 l-76 -3 -13 -43 c-64 -215 -45 -344 58 -397 39 -20 56 -23 125 -20 65 3
90 10 134 33 90 50 169 158 226 310 77 205 183 317 285 300 51 -9 97 -53 106
-103 10 -53 -18 -181 -61 -271 -34 -70 -35 -76 -19 -88 46 -34 116 -2 158 70
13 23 68 168 122 322 53 154 102 283 107 287 16 10 37 -2 37 -23 0 -10 -34
-116 -76 -236 -137 -392 -151 -442 -140 -488 5 -21 12 -25 46 -25 76 0 156
104 235 305 85 214 221 306 324 219 16 -13 32 -21 35 -16 3 5 24 63 47 128 47
136 58 153 82 130 14 -15 14 -21 -4 -74 -104 -292 -189 -547 -199 -593 -16
-71 -4 -99 43 -99 60 0 111 49 177 173 30 55 47 77 61 77 29 0 24 -33 -17
-111 -91 -172 -219 -246 -295 -170 -18 18 -29 40 -29 57 l0 27 -38 -41 c-39
-42 -94 -72 -131 -72 -50 0 -101 50 -101 99 0 30 -8 26 -48 -20 -40 -46 -101
-78 -149 -79 -43 0 -89 40 -97 85 -7 35 -7 35 -32 18 -32 -21 -100 -21 -139
-1 -29 16 -29 15 -72 -29 -68 -69 -133 -89 -193 -58 -33 17 -50 43 -50 74 0
32 -14 25 -45 -20 -134 -192 -449 -211 -536 -32 -42 86 -37 203 17 389 5 18 0
24 -33 34 -193 64 -239 288 -97 477 23 31 54 36 54 9z m2298 -194 l2 -203 47
3 47 3 172 194 c95 107 182 199 195 203 13 5 47 8 77 6 l53 -3 -176 -200 c-97
-110 -187 -210 -201 -222 -23 -21 -23 -23 -6 -35 10 -7 105 -116 212 -243
l193 -230 -53 -3 c-30 -2 -63 -1 -75 2 -11 3 -99 96 -195 206 -96 111 -182
206 -192 211 -9 5 -35 9 -57 9 l-41 0 0 -215 0 -215 -65 0 -65 0 0 470 0 471
63 -3 62 -3 3 -203z m-4760 161 c-16 -20 -48 -16 -48 5 0 27 8 31 35 18 17 -8
21 -14 13 -23z m52 -38 c6 -8 9 -18 6 -23 -3 -6 1 -15 9 -22 20 -16 9 -32 -16
-25 -18 6 -19 5 -7 -14 10 -16 10 -26 2 -39 -27 -42 -82 -14 -64 33 7 20 6 22
-11 18 -23 -6 -27 24 -5 33 8 3 12 12 9 21 -12 30 54 46 77 18z m7665 -19 c47
-20 75 -69 75 -130 0 -43 -4 -53 -39 -87 -34 -35 -44 -39 -87 -39 -61 0 -105
25 -127 73 -22 46 -21 85 3 125 39 64 106 86 175 58z m-5744 -46 c26 -14 26
-71 0 -94 -14 -13 -29 -16 -57 -11 -34 5 -37 4 -21 -7 10 -7 26 -18 34 -24 9
-6 13 -16 9 -22 -10 -16 -47 -14 -70 3 -28 21 -42 18 -22 -4 19 -21 14 -41 -9
-41 -26 0 -75 57 -75 88 0 33 26 65 34 41 2 -8 7 -21 9 -29 3 -8 6 6 6 31 2
76 49 93 52 19 1 -24 1 -24 9 3 15 50 58 69 101 47z m-602 -34 c13 -7 30 -24
37 -37 13 -24 13 -24 14 9 0 17 4 32 9 32 27 0 41 -15 41 -41 0 -29 14 -40 23
-16 8 23 29 -9 30 -47 1 -39 -33 -86 -64 -86 -25 0 -32 15 -14 30 32 26 13 29
-25 4 -33 -22 -42 -24 -55 -14 -14 12 -13 16 11 42 29 29 26 35 -7 18 -22 -12
-73 9 -83 35 -8 21 9 61 31 74 23 13 23 13 52 -3z m-781 -38 c2 -10 8 -18 13
-18 5 0 9 -14 9 -32 0 -23 3 -29 11 -21 6 6 9 19 7 29 -2 10 4 26 13 35 47 47
92 17 63 -40 -9 -17 -22 -31 -30 -31 -8 0 -14 -4 -14 -10 0 -14 23 -12 39 3
11 10 14 9 18 -1 4 -10 8 -10 19 -1 12 10 18 8 29 -7 18 -23 18 -35 2 -54 -13
-16 -60 -20 -73 -7 -4 4 -14 7 -23 7 -13 -1 -13 -3 3 -15 10 -8 24 -25 31 -39
11 -20 11 -28 -1 -45 -25 -35 -82 8 -76 56 2 13 -1 23 -7 23 -6 0 -11 -13 -11
-30 0 -16 -4 -30 -10 -30 -5 0 -10 -6 -10 -14 0 -7 -11 -16 -25 -18 -18 -4
-29 1 -40 19 -14 21 -14 24 0 29 9 4 14 13 11 20 -3 8 -2 14 2 14 5 0 17 7 28
16 18 15 18 15 -6 9 -77 -19 -108 -4 -95 48 5 19 12 24 40 23 19 -1 37 -5 41
-9 4 -4 14 -7 21 -7 8 0 -2 16 -22 37 -20 21 -32 39 -26 41 6 2 11 12 11 23 0
25 51 22 58 -3z m1007 -35 c21 -10 35 -24 35 -35 0 -12 -5 -15 -15 -11 -9 3
-22 -2 -29 -12 -19 -26 -36 -9 -36 36 0 21 2 39 5 39 2 0 20 -8 40 -17z m140
7 c10 -17 -5 -70 -21 -70 -8 0 -14 7 -14 16 0 11 -6 14 -20 9 -28 -9 -26 19 2
39 26 18 44 20 53 6z m-2215 -54 c0 -20 -27 -39 -45 -32 -18 7 -20 52 -2 59
17 6 47 -11 47 -27z m7805 7 c94 -49 138 -123 139 -233 l1 -75 -231 -3 -231
-2 8 -56 c10 -73 52 -141 104 -168 65 -34 154 -29 235 13 l64 33 24 -27 c12
-15 21 -32 19 -39 -7 -23 -109 -74 -173 -86 -180 -34 -325 48 -375 212 -58
190 25 393 180 443 64 21 184 14 236 -12z m-1743 -232 c3 -236 4 -251 24 -278
48 -63 146 -67 231 -9 l48 33 3 251 2 252 60 0 60 0 0 -331 0 -330 -47 3 c-39
2 -48 7 -51 23 -10 70 -9 69 -53 31 -100 -85 -249 -88 -330 -7 -60 60 -69 107
-69 378 l0 233 60 0 59 0 3 -249z m-3883 184 c2 -11 10 -24 18 -30 13 -10 13
-13 -1 -24 -9 -8 -16 -22 -16 -32 0 -14 -7 -19 -29 -19 -16 0 -36 -3 -45 -6
-11 -4 -16 0 -16 15 0 11 -9 25 -21 31 -19 11 -19 13 -5 29 9 10 16 26 16 37
0 17 7 19 47 19 39 -1 49 -5 52 -20z m91 -10 c17 -9 30 -19 30 -24 0 -12 -46
-41 -65 -41 -17 0 -20 16 -4 25 7 5 5 13 -5 24 -28 31 -2 40 44 16z m-238 -25
c-1 -13 3 -27 10 -32 10 -6 10 -10 -1 -17 -15 -9 -81 15 -81 30 0 11 54 49 65
45 6 -2 9 -14 7 -26z m-2025 -4 c9 -8 -23 -36 -42 -36 -19 0 -48 27 -41 38 7
12 70 11 83 -2z m2333 -26 c12 -7 12 -12 -4 -29 -24 -27 -12 -27 21 -1 48 37
93 17 54 -24 -28 -29 -27 -38 3 -25 34 16 86 -12 86 -46 0 -29 -32 -65 -58
-65 -27 0 -62 29 -62 51 0 10 -4 19 -10 19 -5 0 -10 -16 -10 -35 0 -23 -5 -35
-14 -35 -21 0 -34 22 -39 65 -3 34 -5 37 -12 18 -9 -27 -30 -30 -39 -7 -14 35
-5 66 26 95 36 32 37 33 58 19z m-2365 -26 c13 3 30 9 39 12 11 4 16 0 16 -13
0 -12 -13 -25 -34 -35 -31 -16 -35 -15 -67 4 -44 26 -42 24 -35 44 6 15 8 15
32 -1 15 -10 35 -14 49 -11z m2016 -15 c26 -18 30 -26 27 -62 -3 -46 -23 -60
-38 -25 -9 19 -10 16 -6 -19 6 -62 -36 -92 -47 -33 -4 17 -12 30 -18 30 -6 0
-8 -7 -5 -16 9 -24 -39 -67 -67 -59 -51 16 -69 63 -35 95 17 16 31 20 56 16
38 -6 41 6 7 28 -53 35 -7 58 49 25 36 -21 51 -17 19 6 -18 13 -10 35 14 35 8
0 28 -9 44 -21z m239 -45 c0 -38 -8 -41 -50 -19 -30 16 -43 52 -15 41 9 -3 19
3 26 15 15 29 39 6 39 -37z m-125 19 c25 10 18 -29 -10 -47 -13 -9 -28 -16
-33 -16 -16 0 -21 40 -11 69 10 25 11 25 24 7 8 -11 21 -16 30 -13z m-2100
-12 c26 11 49 18 52 15 12 -12 -7 -33 -50 -56 l-45 -24 -37 19 c-45 25 -69 50
-60 65 5 7 21 3 50 -14 l43 -26 47 21z m-371 3 c7 -19 -10 -44 -29 -44 -19 0
-38 28 -31 45 7 20 52 19 60 -1z m706 -19 c16 -20 6 -45 -19 -45 -26 0 -45 32
-29 48 16 16 33 15 48 -3z m-634 -10 c8 -19 -22 -65 -41 -65 -19 0 -19 9 1 48
17 35 31 41 40 17z m60 -20 c8 -47 1 -62 -41 -82 -28 -13 -38 -14 -47 -5 -10
10 -6 18 20 38 19 15 32 34 32 48 0 48 27 49 36 1z m54 -35 l0 -60 -50 -25
c-57 -29 -70 -31 -70 -10 0 8 18 24 40 35 35 18 40 25 40 54 0 44 9 66 26 66
10 0 14 -15 14 -60z m317 1 c-6 -48 -5 -49 34 -75 66 -44 43 -64 -31 -26 l-40
20 0 65 c0 60 2 65 21 65 20 0 21 -4 16 -49z m53 19 c0 -20 9 -38 25 -52 48
-42 22 -67 -29 -27 -21 17 -26 29 -26 65 0 32 4 44 15 44 10 0 15 -10 15 -30z
m60 15 c0 -8 6 -24 12 -35 18 -29 -1 -44 -30 -24 -21 14 -30 53 -15 67 12 13
33 7 33 -8z m-351 -23 c26 -22 34 -37 38 -75 3 -26 1 -47 -4 -47 -5 0 -24 12
-42 28 -26 22 -34 37 -38 75 -3 26 -1 47 4 47 5 0 24 -12 42 -28z m167 -27
c-6 -37 -14 -49 -44 -70 -56 -38 -61 -33 -41 37 7 26 22 46 46 63 20 13 39 23
41 20 2 -2 1 -25 -2 -50z m2114 40 c17 -9 30 -20 30 -25 0 -6 0 -13 0 -17 -1
-5 -13 -7 -28 -6 -23 2 -20 -1 16 -18 33 -16 42 -25 42 -45 0 -21 -4 -25 -17
-19 -10 4 -27 10 -38 13 -19 5 -19 4 3 -20 51 -56 -2 -134 -68 -98 -29 16 -34
59 -10 92 23 32 21 34 -19 13 -28 -14 -41 -11 -41 8 0 5 17 25 38 44 36 33 36
34 10 28 -40 -10 -37 20 5 45 39 24 40 24 77 5z m-2291 -154 l34 -18 -46 -18
c-37 -14 -51 -15 -80 -6 -53 18 -64 37 -30 49 42 16 84 13 122 -7z m260 -10
c11 -7 21 -13 21 -15 0 -2 -21 -11 -46 -20 -44 -15 -49 -15 -92 4 -25 11 -43
22 -40 25 2 3 22 11 44 18 39 14 70 11 113 -12z m-387 -52 l49 -32 -3 -56 c-2
-42 -7 -56 -18 -56 -11 0 -16 13 -18 48 -3 43 -7 50 -42 72 -26 17 -37 30 -34
40 8 20 10 20 66 -16z m172 -26 c-9 -49 -26 -74 -64 -96 l-30 -18 0 30 c0 46
15 76 52 99 45 30 50 28 42 -15z m94 -6 c29 -31 43 -107 19 -107 -8 0 -29 16
-46 35 -24 27 -31 45 -31 76 0 35 2 39 18 30 9 -5 27 -20 40 -34z m180 25 c2
-6 -10 -18 -27 -26 -40 -21 -61 -53 -61 -93 0 -23 -5 -33 -15 -33 -12 0 -15
13 -15 60 l0 60 48 24 c49 26 63 28 70 8z m790 -26 c9 -20 8 -29 -7 -47 l-18
-23 -17 27 c-14 20 -15 30 -6 46 14 28 34 26 48 -3z m-1281 -6 c48 -29 61
-105 18 -105 -15 0 -21 8 -23 31 -2 18 -12 40 -23 50 -19 17 -26 44 -11 44 4
0 22 -9 39 -20z m1109 -25 c52 -64 50 -125 -3 -95 -26 15 -33 30 -47 103 -9
49 4 47 50 -8z m-592 10 c3 -10 -5 -20 -24 -30 -21 -11 -30 -23 -32 -47 -5
-51 -33 -44 -32 6 1 30 8 46 28 63 31 27 51 29 60 8z m923 -57 c-19 -54 -26
-64 -54 -72 -40 -11 -43 -26 -7 -23 37 3 42 -20 7 -35 -15 -6 -43 -25 -60 -42
-38 -35 -52 -28 -35 17 7 19 12 50 12 70 0 30 4 37 19 37 11 0 21 -6 24 -12 2
-7 7 1 11 19 7 30 74 103 96 103 5 0 -1 -28 -13 -62z m-1471 17 c9 -14 14 -32
10 -40 -8 -22 -36 -18 -36 5 0 10 -7 23 -16 28 -19 10 -11 32 11 32 8 0 22
-11 31 -25z m1257 -5 c25 -20 28 -20 58 -5 58 31 81 0 25 -34 -30 -19 -34 -27
-40 -81 -12 -101 -51 -90 -42 13 2 31 1 57 -2 57 -17 0 -65 48 -58 58 11 17
30 15 59 -8z m-683 1 c0 -18 -35 -71 -47 -71 -20 0 -16 57 5 69 22 13 42 14
42 2z m-642 -33 c16 -16 -3 -48 -29 -48 -22 0 -34 22 -25 45 6 18 37 20 54 3z
m384 -19 c26 -17 48 -35 48 -39 0 -21 -23 -19 -61 4 l-42 24 -43 -21 c-36 -17
-46 -19 -57 -8 -7 8 -8 15 -2 17 6 2 28 15 50 29 22 13 44 25 49 25 5 0 31
-14 58 -31z m326 -22 c3 -23 0 -27 -23 -27 -30 0 -43 24 -25 46 19 22 45 13
48 -19z m586 -59 c6 -68 5 -77 -9 -72 -9 4 -22 19 -30 34 -8 15 -28 33 -45 40
-39 16 -37 46 3 42 19 -2 29 3 34 15 8 22 26 35 34 25 4 -4 10 -42 13 -84z
m-132 36 c-3 -37 0 -41 42 -71 24 -17 50 -41 56 -54 11 -20 11 -21 -15 -15
-15 4 -45 19 -66 33 -36 24 -44 25 -73 15 -18 -7 -38 -12 -44 -12 -23 0 -12
30 17 44 29 16 41 34 41 65 0 20 20 43 35 38 5 -2 9 -21 7 -43z m-72 6 c14
-26 5 -40 -26 -40 -24 0 -48 34 -37 53 9 15 53 6 63 -13z m1170 0 c8 -14 8
-26 0 -40 -7 -14 -7 -20 0 -20 19 0 10 -31 -12 -40 -13 -5 -17 -9 -9 -9 24 -1
-9 -31 -34 -31 -28 0 -60 34 -49 52 5 7 7 26 5 43 l-3 30 22 -20 23 -20 -7 23
c-14 45 42 73 64 32z m-690 -34 c0 -39 4 -47 30 -63 29 -17 38 -37 22 -47 -5
-3 -26 4 -46 15 l-38 20 -45 -26 c-25 -14 -54 -25 -64 -25 -36 0 -18 30 36 61
38 21 55 37 55 51 0 28 18 58 35 58 11 0 15 -12 15 -44z m-1201 13 c24 -14 31
-23 23 -31 -8 -8 -19 -7 -41 1 -22 10 -34 10 -51 1 -22 -12 -50 -7 -50 7 0 11
51 42 70 43 8 0 30 -9 49 -21z m1290 2 c23 -15 -4 -51 -39 -51 -34 0 -38 14
-13 42 18 20 31 22 52 9z m392 -33 c8 -15 14 -17 22 -9 20 20 30 11 23 -21 -4
-23 -3 -28 3 -18 9 12 11 12 17 -3 10 -26 -22 -67 -52 -67 -20 0 -25 4 -20 16
4 11 1 14 -13 9 -10 -3 -23 1 -30 9 -9 11 -7 15 11 21 l23 7 -25 7 c-31 8 -40
49 -15 67 21 15 42 8 56 -18z m-1696 -28 c10 -11 16 -21 14 -21 -2 -1 -23 -3
-46 -4 -46 -3 -59 15 -25 34 25 15 37 13 57 -9z m802 -60 c14 -11 36 -20 48
-20 24 0 49 -22 38 -33 -3 -4 -17 -7 -31 -7 -13 0 -39 -7 -58 -16 -19 -9 -41
-13 -50 -10 -15 6 -15 8 2 27 15 17 16 24 6 39 -27 43 1 55 45 20z m1001 8
c14 -14 16 -42 3 -33 -5 3 -13 0 -17 -6 -10 -16 -23 8 -17 32 6 22 14 24 31 7z
m172 -20 c0 -20 1 -20 18 -5 25 22 49 21 62 -2 7 -15 5 -25 -9 -43 -17 -20
-22 -21 -40 -10 -12 7 -21 8 -21 3 0 -6 5 -13 11 -17 21 -12 -7 -23 -45 -17
-27 4 -41 13 -49 30 -12 28 0 58 24 58 8 0 18 6 22 13 13 19 27 14 27 -10z
m-1242 0 c19 -19 14 -34 -13 -46 -21 -10 -36 -8 -82 8 -31 11 -58 22 -60 24
-8 8 59 24 103 25 22 1 45 -4 52 -11z m286 -4 c28 -28 19 -62 -22 -83 -19 -10
-28 -10 -48 4 -44 28 -22 95 31 95 13 0 31 -7 39 -16z m196 -6 c0 -6 -7 -19
-15 -28 -14 -15 -14 -18 0 -30 8 -7 15 -18 15 -26 0 -25 -21 -25 -51 0 -17 14
-40 26 -52 26 -29 0 -51 15 -43 29 4 6 19 11 34 11 15 0 43 8 62 19 36 19 50
19 50 -1z m-1222 0 c16 -16 -3 -48 -29 -48 -22 0 -34 22 -25 45 6 18 37 20 54
3z m1892 -13 c0 -28 -9 -31 -29 -12 -11 10 -13 6 -8 -19 8 -43 -19 -69 -57
-55 -14 6 -26 17 -26 25 0 9 -7 12 -19 9 -27 -7 -50 34 -25 44 9 3 25 1 36 -6
14 -9 23 -9 33 -1 7 6 20 8 29 4 10 -4 16 -1 16 9 0 15 14 25 38 26 6 1 12
-10 12 -24z m-554 -17 l59 -22 -40 -12 c-61 -19 -109 -17 -129 5 -16 18 -16
20 6 35 29 21 35 20 104 -6z m322 -24 c12 -8 22 -12 21 -7 -5 30 35 17 43 -15
7 -27 -9 -63 -25 -56 -8 3 -17 -2 -20 -10 -10 -25 -40 -20 -34 5 5 19 4 20
-12 5 -21 -19 -43 -20 -59 -4 -32 32 8 80 49 58 19 -10 20 -10 10 9 -20 36
-10 41 27 15z m-748 -12 c0 -13 -31 -38 -77 -61 -40 -20 -43 -24 -43 -61 0
-33 -3 -40 -20 -40 -17 0 -20 7 -20 40 0 21 -6 44 -12 50 -7 5 -23 18 -35 28
-17 12 -20 21 -13 32 8 13 15 12 49 -7 l40 -23 47 25 c47 25 84 32 84 17z
m993 -10 c20 -22 13 -32 -21 -32 -18 0 -23 4 -18 16 3 9 6 20 6 25 0 15 16 10
33 -9z m-795 -12 c20 -11 45 -26 54 -32 14 -10 24 -10 50 0 48 19 51 19 55 1
3 -10 -9 -24 -31 -37 -29 -17 -35 -27 -38 -59 -4 -52 -30 -52 -39 0 -5 29 -18
49 -58 86 -70 64 -67 81 7 41z m669 -16 c14 -13 14 -17 2 -25 -36 -23 -66 0
-37 29 15 15 16 15 35 -4z m-841 -21 c-4 -16 -11 -48 -16 -72 -6 -24 -12 -46
-15 -49 -10 -10 -35 9 -35 27 0 15 -6 19 -27 18 -19 -1 -28 3 -31 16 -2 10 3
17 11 17 8 0 34 16 58 34 54 43 63 44 55 9z m183 -61 c30 -23 20 -43 -18 -36
-23 5 -29 2 -34 -16 -4 -14 -12 -21 -24 -18 -14 3 -17 11 -15 45 2 23 -2 51
-8 63 -6 12 -9 29 -5 38 5 13 13 9 43 -21 20 -20 48 -45 61 -55z m-119 -12 c0
-47 4 -60 25 -80 47 -44 22 -69 -28 -30 -25 20 -28 20 -56 5 -63 -32 -88 0
-27 36 30 18 34 24 39 78 3 33 8 65 13 72 14 23 34 -23 34 -81z m850 63 c0
-35 -15 -45 -34 -24 -21 23 -14 41 15 41 11 0 19 -7 19 -17z m76 2 c-4 -11 1
-15 19 -15 30 0 42 -18 19 -27 -15 -6 -15 -7 5 -14 28 -11 37 -35 20 -55 -17
-21 -51 -14 -65 14 -9 19 -13 20 -17 8 -11 -28 -30 -18 -25 13 3 21 1 28 -9
24 -19 -7 -17 32 3 51 20 21 58 21 50 1z m-1202 -23 c9 -14 -24 -52 -44 -52
-25 0 -33 15 -20 40 11 20 54 28 64 12z m1078 -9 c8 -10 15 -35 15 -55 1 -37
-9 -49 -22 -28 -3 6 -11 10 -17 10 -7 0 -6 -5 1 -14 20 -24 -4 -58 -37 -54
-34 4 -44 45 -16 65 17 12 16 13 -4 13 -25 0 -30 25 -7 34 8 3 15 12 15 20 0
28 50 34 72 9z m-518 -35 c22 -32 20 -38 -14 -38 -28 0 -50 22 -50 49 0 20 49
11 64 -11z m-421 -40 c8 -29 -4 -48 -57 -92 -51 -42 -53 -40 -30 30 24 73 75
110 87 62z m257 -6 c15 -12 27 -39 35 -78 7 -32 11 -61 9 -63 -6 -7 -54 41
-75 76 -13 21 -18 40 -13 57 7 31 14 32 44 8z m-970 -27 c0 -8 7 -15 16 -15
11 0 15 -6 11 -19 -2 -10 -1 -25 4 -32 6 -10 9 -8 9 9 0 35 29 72 56 72 15 0
24 -6 24 -15 0 -8 5 -15 12 -15 6 0 3 -9 -7 -20 -10 -11 -14 -20 -9 -20 5 0
-4 -11 -21 -25 -22 -18 -26 -24 -13 -25 9 0 20 5 23 10 9 15 38 12 29 -2 -6
-10 -4 -10 7 0 20 18 33 15 46 -13 6 -14 7 -25 2 -25 -5 0 -9 -6 -9 -14 0 -16
-48 -16 -83 -1 -29 12 -31 -2 -3 -20 14 -10 26 -23 26 -30 0 -7 5 -15 11 -17
9 -3 9 -9 0 -25 -15 -28 -71 -29 -71 -1 0 10 -4 18 -10 18 -5 0 -10 10 -10 23
0 22 0 22 -15 -3 -8 -14 -18 -33 -21 -43 -9 -26 -54 -18 -65 10 -7 19 -2 30
27 58 35 35 31 45 -9 24 -16 -9 -22 -9 -25 0 -3 9 -7 9 -18 0 -12 -10 -18 -8
-29 7 -19 25 -19 28 5 49 17 16 25 17 59 7 54 -17 60 -15 31 11 -45 39 -53 53
-40 76 13 25 60 29 60 6z m4041 -164 c4 -133 6 -153 25 -178 35 -47 103 -44
129 7 11 22 15 64 15 175 0 140 1 145 21 145 20 0 20 -4 17 -159 -3 -181 -11
-203 -83 -230 -32 -13 -43 -13 -78 0 -67 23 -80 56 -85 220 -5 145 -2 169 22
169 11 0 15 -29 17 -149z m1319 80 l0 -70 28 15 c38 20 91 17 129 -6 90 -55
84 -204 -11 -250 -51 -24 -71 -25 -111 -4 -19 10 -31 11 -33 5 -2 -6 -12 -11
-23 -11 -18 0 -19 9 -19 188 0 104 3 192 7 195 3 4 12 7 20 7 9 0 13 -18 13
-69z m710 14 l0 -54 57 -3 c46 -2 59 -7 61 -20 3 -16 -5 -18 -57 -18 l-61 0 0
-85 c0 -97 16 -125 70 -125 29 0 70 29 70 50 0 6 7 10 15 10 8 0 15 -8 15 -18
0 -30 -29 -61 -69 -73 -33 -10 -45 -9 -77 7 -52 25 -64 54 -64 152 l0 82 -30
0 c-23 0 -30 4 -30 20 0 16 7 20 30 20 30 0 30 1 30 55 0 48 2 55 20 55 18 0
20 -7 20 -55z m-5230 -9 c0 -22 -17 -46 -32 -46 -4 0 -12 9 -18 21 -16 28 14
77 36 58 8 -6 14 -21 14 -33z m3695 -60 c34 -15 44 -29 26 -40 -5 -3 -26 1
-47 10 -62 26 -144 5 -144 -36 0 -20 34 -34 110 -45 90 -14 123 -49 100 -105
-19 -45 -94 -67 -175 -50 -64 13 -95 33 -78 51 9 9 21 8 53 -5 80 -32 182 -10
165 36 -8 20 -22 25 -101 38 -89 15 -124 48 -110 104 12 49 127 73 201 42z
m347 -23 c22 -22 32 -43 35 -77 l6 -46 -117 0 c-131 0 -141 -7 -87 -61 35 -35
89 -39 137 -10 21 13 36 16 45 10 11 -8 10 -13 -9 -29 -64 -53 -157 -47 -211
15 -26 30 -31 44 -31 86 0 99 55 153 148 146 43 -3 59 -10 84 -34z m198 6 l0
-30 23 26 c35 42 156 50 141 10 -5 -12 -15 -14 -39 -9 -75 14 -125 -49 -125
-155 l0 -61 30 0 c20 0 30 -5 30 -15 0 -12 -16 -15 -80 -15 -64 0 -80 3 -80
15 0 10 10 15 30 15 l30 0 0 105 0 105 -30 0 c-23 0 -30 4 -30 20 0 17 7 20
50 20 49 0 50 -1 50 -31z m766 15 c65 -31 92 -124 56 -193 -27 -54 -64 -75
-127 -75 -63 0 -100 21 -127 75 -64 125 69 254 198 193z m-5246 -215 c0 -11 5
-17 10 -14 6 3 10 -5 10 -19 0 -14 5 -28 10 -31 6 -4 10 7 10 24 0 17 5 31 10
31 6 0 10 7 10 15 0 10 10 15 29 15 21 0 30 -6 34 -22 4 -12 1 -25 -5 -29 -6
-4 -8 -11 -5 -16 4 -6 -5 -15 -19 -22 -14 -6 -22 -16 -19 -21 4 -6 11 -7 17
-4 6 4 25 10 43 14 29 6 35 4 46 -17 9 -17 10 -29 3 -40 -11 -17 -71 -26 -80
-12 -3 5 -13 9 -22 9 -15 -1 -15 -2 2 -15 25 -19 46 -62 39 -80 -7 -20 -63
-20 -63 0 0 8 -4 15 -10 15 -5 0 -10 11 -10 24 0 14 -4 28 -10 31 -6 4 -10 -7
-10 -24 0 -17 -4 -31 -10 -31 -5 0 -10 -7 -10 -15 0 -25 -56 -20 -63 6 -3 12
0 22 9 26 8 3 11 9 8 14 -3 5 5 18 18 29 17 14 19 19 8 20 -9 0 -22 -6 -28
-12 -10 -10 -15 -10 -21 1 -6 9 -11 10 -15 2 -19 -30 -49 20 -35 57 7 19 12
21 28 13 14 -8 20 -8 23 1 3 7 13 5 31 -7 15 -9 27 -13 27 -7 0 6 -9 16 -20
22 -11 6 -18 15 -15 20 3 5 -3 14 -14 20 -19 10 -20 11 -4 30 24 27 63 27 63
-1z"/>
<path d="M5334 6816 c-9 -24 3 -46 26 -46 17 0 21 5 18 27 -3 31 -34 44 -44
19z"/>
<path d="M4263 6364 c-3 -8 1 -22 9 -30 12 -12 17 -12 33 -1 23 17 14 47 -15
47 -11 0 -23 -7 -27 -16z"/>
<path d="M6396 6365 c-3 -8 2 -22 11 -30 14 -15 18 -15 31 -1 8 8 12 22 9 30
-8 20 -43 21 -51 1z"/>
<path d="M3832 5311 c-21 -13 -10 -46 16 -49 20 -3 23 0 20 24 -3 30 -16 38
-36 25z"/>
<path d="M6852 5311 c-19 -12 -11 -45 12 -49 24 -5 37 17 25 40 -11 20 -18 22
-37 9z"/>
<path d="M4264 4235 c-9 -23 3 -45 25 -45 23 0 35 28 20 46 -15 18 -38 18 -45
-1z"/>
<path d="M6400 4235 c-11 -13 -11 -19 3 -32 21 -21 49 -9 45 19 -4 28 -30 35
-48 13z"/>
<path d="M5342 3801 c-19 -12 -11 -45 12 -49 24 -5 37 17 25 40 -11 20 -18 22
-37 9z"/>
<path d="M8035 2721 c-22 -10 -55 -33 -72 -51 l-33 -34 0 -157 0 -157 32 -31
c73 -71 205 -64 266 14 58 74 70 268 21 354 -41 73 -132 100 -214 62z"/>
<path d="M4525 3031 c-83 -38 -159 -128 -233 -276 -62 -126 -62 -125 -4 -125
59 0 185 31 242 60 55 28 117 86 140 130 43 85 33 176 -23 210 -40 25 -70 25
-122 1z"/>
<path d="M4922 2654 c-74 -78 -152 -266 -152 -369 0 -56 22 -85 66 -85 27 0
44 10 85 49 50 48 51 51 45 93 -8 58 5 102 31 106 17 3 22 -3 25 -25 3 -22 9
-11 31 55 48 148 32 222 -50 222 -30 0 -44 -8 -81 -46z"/>
<path d="M5705 2659 c-99 -91 -187 -360 -145 -440 7 -13 21 -19 45 -19 69 0
131 83 214 287 53 127 55 150 18 191 -33 36 -79 30 -132 -19z"/>
<path d="M9212 2974 c-55 -38 -68 -123 -27 -173 69 -81 191 -50 211 54 8 43
-17 95 -55 118 -36 21 -99 22 -129 1z m108 -33 c0 -4 -13 -6 -29 -3 -48 7 -78
-58 -51 -109 8 -13 21 -19 46 -19 21 0 33 -4 29 -10 -11 -18 -56 -10 -80 15
-41 40 -27 116 24 133 27 9 61 5 61 -7z"/>
<path d="M8757 2736 c-50 -18 -85 -51 -108 -101 -36 -78 -42 -75 162 -75 l182
0 -7 42 c-18 111 -124 173 -229 134z"/>
<path d="M6670 1553 c-41 -15 -50 -35 -50 -109 0 -64 3 -75 22 -88 12 -9 40
-16 61 -16 77 0 121 86 85 165 -19 42 -74 64 -118 48z"/>
<path d="M6001 1547 c-22 -13 -50 -51 -51 -69 0 -5 43 -8 95 -8 105 0 114 7
73 55 -28 31 -83 41 -117 22z"/>
<path d="M6984 1541 c-62 -39 -68 -147 -9 -185 38 -25 101 -21 130 8 91 91
-15 244 -121 177z"/>
</g>
</svg>
